<svg id="add396eb-89f5-4fc4-8bd6-ed68b8b07aec" data-name="Layer 1" xmlns="http://www.w3.org/2000/svg" viewBox="0 0 197.62 49.64">
  <title>logo</title>
  <g>
    <path d="M602.88,373.83l13-13.2a2.87,2.87,0,0,1,2.07-.91,2.77,2.77,0,0,1,2.07.84,2.81,2.81,0,0,1,.87,2.09,2.93,2.93,0,0,1-.83,2.05L607,378l13.16,13.28a3.14,3.14,0,0,1,.87,2.07,2.57,2.57,0,0,1-.83,2.07,2.86,2.86,0,0,1-4.11,0l-13.16-13.31L589.8,395.35a2.88,2.88,0,0,1-1,.66,2.71,2.71,0,0,1-1.12.23,3.41,3.41,0,0,1-1.14-.19,2.81,2.81,0,0,1-1-.62,2.56,2.56,0,0,1-.83-2.05,3,3,0,0,1,.91-2.05L598.82,378l-13.16-13.35a2.76,2.76,0,0,1-.85-2,2.67,2.67,0,0,1,.89-2,2.71,2.71,0,0,1,2.07-.87,2.77,2.77,0,0,1,2,.9Z" transform="translate(-584.71 -359.68)" style="fill: #fff"/>
    <path d="M631.8,364.85a18.54,18.54,0,0,1,5.73-3.71,17.65,17.65,0,0,1,6.92-1.36,18,18,0,0,1,7.18,1.45,18.49,18.49,0,0,1,9.8,9.82,18.55,18.55,0,0,1,0,14.38,19.09,19.09,0,0,1-3.95,5.86,18.53,18.53,0,0,1-5.85,4,17.79,17.79,0,0,1-7.18,1.45,18,18,0,0,1-6.92-1.34,18.3,18.3,0,0,1-5.73-3.69v14.78a2.79,2.79,0,0,1-.85,2,3,3,0,0,1-4.11,0,2.75,2.75,0,0,1-.85-2V362.65a2.73,2.73,0,0,1,.85-2.06,3,3,0,0,1,4.11,0,2.77,2.77,0,0,1,.85,2.06Zm1,18.27a13,13,0,0,0,2.69,4,12.73,12.73,0,0,0,4,2.73,12.17,12.17,0,0,0,4.93,1,12.34,12.34,0,0,0,5-1,12.7,12.7,0,0,0,6.68-6.74,12.44,12.44,0,0,0,1-4.87,12.72,12.72,0,0,0-1-4.94,12.54,12.54,0,0,0-2.68-4,12.52,12.52,0,0,0-9-3.67,12.5,12.5,0,0,0-4.93,1,12.49,12.49,0,0,0-6.7,6.7,12.38,12.38,0,0,0-1,4.94A12.11,12.11,0,0,0,632.82,383.12Z" transform="translate(-584.71 -359.68)" style="fill: #fff"/>
    <path d="M668.9,403.5a3.45,3.45,0,0,1,4.84,0,3.45,3.45,0,0,1,0,4.82,3.42,3.42,0,0,1-4.84-4.82Z" transform="translate(-584.71 -359.68)" style="fill: #fff"/>
    <path d="M674.22,393.34a2.83,2.83,0,0,1-.83,2.05,2.75,2.75,0,0,1-2,.85,2.86,2.86,0,0,1-2.07-.85,2.75,2.75,0,0,1-.87-2.05V362.69a2.9,2.9,0,0,1,2.94-2.95,2.77,2.77,0,0,1,2.06.85,2.94,2.94,0,0,1,.81,2.1Z" transform="translate(-584.71 -359.68)" style="fill: #fff"/>
    <path d="M687.77,365.28a19.4,19.4,0,0,1,6-4,18.35,18.35,0,0,1,7.33-1.47h.23a3,3,0,0,1,2.23.83,2.9,2.9,0,0,1,.79,2.08,2.65,2.65,0,0,1-.89,2.05,3,3,0,0,1-2.13.81h-.23a12.72,12.72,0,0,0-5.17,1.06,13.82,13.82,0,0,0-4.23,2.89,13.46,13.46,0,0,0-2.89,4.29,13.23,13.23,0,0,0-1.06,5.27v14.28a2.8,2.8,0,0,1-.84,2.05,2.75,2.75,0,0,1-2.07.85,2.9,2.9,0,0,1-2.9-2.9V362.69a2.85,2.85,0,0,1,.85-2.1,2.88,2.88,0,0,1,2.09-.85,2.73,2.73,0,0,1,2.05.85,2.9,2.9,0,0,1,.82,2.1Z" transform="translate(-584.71 -359.68)" style="fill: #fff"/>
    <path d="M711.46,380.88a12.34,12.34,0,0,0,17.14,9.17,10.18,10.18,0,0,0,3.68-2.79,3.09,3.09,0,0,1,1.51-.71,3.39,3.39,0,0,1,1.39.09,2.87,2.87,0,0,1,1.36,1.2,3,3,0,0,1,.54,1.92,2.75,2.75,0,0,1-1,2,15.88,15.88,0,0,1-2.27,1.94,15.09,15.09,0,0,1-2.81,1.55,17.36,17.36,0,0,1-3.4,1,19.87,19.87,0,0,1-4.07.39,18.32,18.32,0,0,1-7.2-1.43,18.83,18.83,0,0,1-5.88-3.93,18.5,18.5,0,0,1-4-5.87,18.58,18.58,0,0,1,0-14.39,18.5,18.5,0,0,1,4-5.87,19.06,19.06,0,0,1,5.88-3.95,18.62,18.62,0,0,1,14.36,0,18.56,18.56,0,0,1,5.87,3.93,19.19,19.19,0,0,1,4,5.83,18,18,0,0,1,1.51,7.12,2.67,2.67,0,0,1-.8,2,2.83,2.83,0,0,1-2.07.78ZM736,376a11.68,11.68,0,0,0-1.42-4.2,12.76,12.76,0,0,0-2.75-3.39,12.4,12.4,0,0,0-3.77-2.24,12.64,12.64,0,0,0-4.53-.81,12.09,12.09,0,0,0-4.51.83,12.58,12.58,0,0,0-3.73,2.26,12.36,12.36,0,0,0-2.69,3.39,12.22,12.22,0,0,0-1.38,4.16Z" transform="translate(-584.71 -359.68)" style="fill: #fff"/>
    <path d="M751.79,380.88a12.12,12.12,0,0,0,4.08,7.29,12.12,12.12,0,0,0,3.64,2.15,12.68,12.68,0,0,0,9.43-.27,10.23,10.23,0,0,0,3.67-2.79,3.09,3.09,0,0,1,1.51-.71,3.44,3.44,0,0,1,1.4.09,2.85,2.85,0,0,1,1.35,1.2,3,3,0,0,1,.54,1.92,2.72,2.72,0,0,1-1,2,15.37,15.37,0,0,1-5.07,3.49,17.68,17.68,0,0,1-3.41,1,19.77,19.77,0,0,1-4.06.39,18.25,18.25,0,0,1-7.2-1.43,18.76,18.76,0,0,1-5.89-3.93,18.48,18.48,0,0,1-4-5.87,18.46,18.46,0,0,1,0-14.39,18.48,18.48,0,0,1,4-5.87,19,19,0,0,1,5.89-3.95,18.62,18.62,0,0,1,14.36,0,18.52,18.52,0,0,1,5.86,3.93,19,19,0,0,1,4,5.83,18,18,0,0,1,1.51,7.12,2.67,2.67,0,0,1-.8,2,2.8,2.8,0,0,1-2.07.78ZM776.37,376a11.68,11.68,0,0,0-1.42-4.2,12.92,12.92,0,0,0-2.74-3.39,12.63,12.63,0,0,0-8.31-3.05,12.09,12.09,0,0,0-4.51.83,12.29,12.29,0,0,0-6.42,5.65,12.22,12.22,0,0,0-1.38,4.16Z" transform="translate(-584.71 -359.68)" style="fill: #fff"/>
  </g>
</svg>
